<svg width="25" height="24" viewBox="0 0 25 24" fill="none" xmlns="http://www.w3.org/2000/svg">
<rect width="25" height="24"/>
<path d="M15 11.892V12.108C15 12.151 14.9858 12.1922 14.9604 12.2226C14.9351 12.2529 14.9008 12.27 14.865 12.27H12.725V14.838C12.725 14.881 12.7108 14.9222 12.6855 14.9526C12.6601 14.9829 12.6258 15 12.59 15H12.41C12.3742 15 12.3399 14.9829 12.3145 14.9526C12.2892 14.9222 12.275 14.881 12.275 14.838V12.27H10.135C10.0992 12.27 10.0649 12.2529 10.0396 12.2226C10.0142 12.1922 10 12.151 10 12.108V11.892C10 11.849 10.0142 11.8078 10.0396 11.7774C10.0649 11.7471 10.0992 11.73 10.135 11.73H12.275V9.162C12.275 9.11903 12.2892 9.07783 12.3145 9.04745C12.3399 9.01707 12.3742 9 12.41 9H12.59C12.6258 9 12.6601 9.01707 12.6855 9.04745C12.7108 9.07783 12.725 9.11903 12.725 9.162V11.73H14.865C14.9008 11.73 14.9351 11.7471 14.9604 11.7774C14.9858 11.8078 15 11.849 15 11.892V11.892Z" fill="#979797"/>
</svg>
